<svg width="52" height="52" viewBox="0 0 52 52" fill="none" xmlns="http://www.w3.org/2000/svg">
<path d="M38.6689 23.2081L23.5411 12.221C22.4913 11.4585 21.1027 11.3495 19.9464 11.9388C18.7905 12.5279 18.0624 13.7158 18.0624 15.0133V36.9875C18.0624 38.2852 18.7904 39.4727 19.9464 40.0616C20.4411 40.3136 20.9777 40.4379 21.5131 40.4379C22.2285 40.4379 22.9405 40.2157 23.5411 39.7792L38.6689 28.7922C39.5628 28.1432 40.0915 27.1053 40.0915 26.0001C40.0915 24.8953 39.5628 23.857 38.6689 23.2081Z" fill="#0d6efd"/>
<path d="M25.9999 0C11.6632 0 0 11.6637 0 26.0001C0 40.3362 11.6634 52.0002 25.9999 52.0002C40.3362 52.0002 51.9994 40.3362 51.9994 26.0001C51.9993 11.6637 40.3365 0 25.9999 0ZM25.9999 45.6109C15.1866 45.6109 6.38909 36.8135 6.38909 26.0001C6.38909 15.1866 15.1866 6.38952 25.9999 6.38952C36.8132 6.38952 45.6108 15.1866 45.6108 26.0001C45.6107 36.8136 36.8132 45.6109 25.9999 45.6109Z" fill="#0d6efd"/>
</svg>
